<?xml version="1.0" encoding="UTF-8"?>
<svg id="Layer_1" xmlns="http://www.w3.org/2000/svg" version="1.1" xmlns:xlink="http://www.w3.org/1999/xlink" viewBox="0 0 612 792">
  <!-- Generator: Adobe Illustrator 29.8.3, SVG Export Plug-In . SVG Version: 2.1.1 Build 3)  -->
  <defs>
    <style>
      .st0 {
        fill: url(#linear-gradient2);
      }

      .st1 {
        stroke: url(#linear-gradient10);
      }

      .st1, .st2, .st3 {
        fill: none;
        stroke-miterlimit: 10;
      }

      .st1, .st3 {
        stroke-width: 4px;
      }

      .st4 {
        fill: url(#linear-gradient1);
      }

      .st5 {
        fill: url(#linear-gradient9);
      }

      .st6 {
        fill: url(#linear-gradient18);
      }

      .st7 {
        fill: url(#linear-gradient8);
      }

      .st8 {
        fill: url(#linear-gradient16);
      }

      .st9 {
        fill: url(#linear-gradient12);
      }

      .st10 {
        fill: url(#linear-gradient7);
      }

      .st11 {
        fill: url(#linear-gradient4);
      }

      .st12 {
        fill: url(#linear-gradient5);
      }

      .st13 {
        fill: url(#linear-gradient3);
      }

      .st14 {
        fill: url(#linear-gradient15);
      }

      .st15 {
        fill: url(#linear-gradient17);
      }

      .st2 {
        stroke: url(#linear-gradient14);
        stroke-width: 3px;
      }

      .st16 {
        fill: url(#linear-gradient6);
      }

      .st17 {
        fill: url(#linear-gradient13);
      }

      .st18 {
        fill: url(#linear-gradient);
      }

      .st3 {
        stroke: url(#linear-gradient11);
      }
    </style>
    <linearGradient id="linear-gradient" x1="45.99" y1="36.77" x2="159.02" y2="36.77" gradientUnits="userSpaceOnUse">
      <stop offset="0" stop-color="#fbd7e7"/>
      <stop offset="1" stop-color="#fbdeeb"/>
    </linearGradient>
    <linearGradient id="linear-gradient1" x1="111.94" y1="58.23" x2="152.02" y2="58.23" xlink:href="#linear-gradient"/>
    <linearGradient id="linear-gradient2" x1="209.47" y1="45.24" x2="264.34" y2="45.24" xlink:href="#linear-gradient"/>
    <linearGradient id="linear-gradient3" x1="255.86" y1="71.17" x2="273.19" y2="71.17" xlink:href="#linear-gradient"/>
    <linearGradient id="linear-gradient4" x1="329.42" y1="48.62" x2="406.39" y2="48.62" xlink:href="#linear-gradient"/>
    <linearGradient id="linear-gradient5" x1="29.05" y1="134.66" x2="79.18" y2="134.66" xlink:href="#linear-gradient"/>
    <linearGradient id="linear-gradient6" x1="23.47" y1="178.92" x2="86.09" y2="178.92" xlink:href="#linear-gradient"/>
    <linearGradient id="linear-gradient7" x1="92.6" y1="121.66" x2="161.42" y2="121.66" xlink:href="#linear-gradient"/>
    <linearGradient id="linear-gradient8" x1="97.35" y1="139.86" x2="127.78" y2="139.86" xlink:href="#linear-gradient"/>
    <linearGradient id="linear-gradient9" x1="99.21" y1="157.81" x2="115.88" y2="157.81" xlink:href="#linear-gradient"/>
    <linearGradient id="linear-gradient10" x1="445.85" y1="100.28" x2="445.85" y2="100.28" xlink:href="#linear-gradient"/>
    <linearGradient id="linear-gradient11" x1="507.63" y1="100.28" x2="507.63" y2="100.28" xlink:href="#linear-gradient"/>
    <linearGradient id="linear-gradient12" x1="510.42" y1="41.4" x2="516.52" y2="41.4" xlink:href="#linear-gradient"/>
    <linearGradient id="linear-gradient13" x1="446.45" y1="54.74" x2="516.98" y2="54.74" xlink:href="#linear-gradient"/>
    <linearGradient id="linear-gradient14" x1="452.67" y1="29.21" x2="484.18" y2="29.21" xlink:href="#linear-gradient"/>
    <linearGradient id="linear-gradient15" x1="456.44" y1="81.65" x2="499.84" y2="81.65" xlink:href="#linear-gradient"/>
    <linearGradient id="linear-gradient16" x1="455.74" y1="71.09" x2="499.14" y2="71.09" xlink:href="#linear-gradient"/>
    <linearGradient id="linear-gradient17" x1="455.74" y1="60.53" x2="499.14" y2="60.53" xlink:href="#linear-gradient"/>
    <linearGradient id="linear-gradient18" x1="455.74" y1="49.97" x2="499.14" y2="49.97" xlink:href="#linear-gradient"/>
  </defs>
  <path class="st18" d="M46.01,40.73c29.37-.76,58.74-1.52,88.11-2.28l24.89-.64c3.21-.08,3.22-5.08,0-5-29.37.76-58.74,1.52-88.11,2.28l-24.89.64c-3.21.08-3.22,5.08,0,5h0Z"/>
  <path class="st4" d="M111.98,61.13c13.32-.85,26.68-1.03,40.02-.54,3.22.12,3.21-4.88,0-5-13.34-.49-26.7-.31-40.02.54-1.35.09-2.5,1.09-2.5,2.5,0,1.29,1.15,2.59,2.5,2.5h0Z"/>
  <path class="st0" d="M228.09,19.38c-12.56,2.99-21.4,15.21-20.57,28.08.39,6.08,2.85,12,6.99,16.48,3.46,3.75,8.18,6.27,13.14,7.37,10.18,2.25,21.32-.67,29.27-7.35,8.73-7.32,12.21-19.75,6.56-30.03-5.84-10.62-19.39-16.69-31.23-15.31-1.41.16-2.79.42-4.17.77-3.12.77-1.8,5.6,1.33,4.82,9.74-2.42,21.17,1.23,27.74,9.22,1.44,1.75,2.7,4.03,3.38,6.2.38,1.23.65,2.47.74,3.59.05.67.07,1.34.06,2.01,0,.32-.02.63-.04.95,0,.1-.11,1-.06.65-.16,1.15-.42,2.29-.77,3.4-.39,1.25-.58,1.73-1.11,2.78-1.05,2.09-2.08,3.54-3.51,5.09-5.95,6.41-14.95,9.57-23.69,8.87-1.19-.09-1.59-.15-2.92-.43-1.09-.23-2.17-.53-3.22-.9s-1.44-.53-2.56-1.12c-.98-.52-1.92-1.11-2.82-1.76-.3-.21-.47-.35-.95-.78-.44-.39-.87-.79-1.28-1.21-.9-.93-1.34-1.47-1.97-2.4-1.5-2.21-2.62-4.57-3.29-7.15-2.6-10.12,2.66-21.43,12.44-25.77,1.19-.53,2.54-.93,3.85-1.25,3.13-.74,1.8-5.57-1.33-4.82Z"/>
  <path class="st13" d="M254.45,64.61c5.54,5.56,11.08,11.11,16.62,16.67.95.96,2.58.95,3.54,0s.96-2.58,0-3.54c-5.54-5.56-11.08-11.11-16.62-16.67-.95-.96-2.58-.95-3.54,0s-.96,2.58,0,3.54h0Z"/>
  <path class="st11" d="M399.89,53.99c-2.35,3.51-5.67,6.16-9.39,8.1-1.71.89-3.61,1.56-5.18,2.7-1.85,1.34-3.14,3.24-3.64,5.49s-.33,4.68.38,6.88c.27.84.68,2.21,1.19,2.8-.53-.62.95-2.36,1.31-2.09-.15-.12.55.21-.13-.08-.48-.21-1.07-.27-1.58-.44-3.23-1.07-5.74-3.48-7.23-6.51-.82-1.66-.95-3.57-2.3-4.94s-3.24-1.7-5.03-1.8c-3.74-.21-7.47,0-11.21-.32-7.94-.67-15.5-3.11-20.86-9.26-4.89-5.62-4.82-14.05-1.04-20.2,1.45-2.36,2.76-4.01,5.04-5.9.82-.68,2.09-1.57,3.28-2.29,1.27-.77,2.58-1.45,3.93-2.07,5.48-2.52,12.16-3.96,18.24-4.41s12.41-.12,18.39,1.56c2.78.78,4.71,1.52,7.13,3,2.76,1.68,5.21,3.88,7.14,6.48,4,5.38,6.72,12.96,3.99,19.42-.6,1.43-1.5,2.64-2.43,3.87-.82,1.08-.17,2.8.9,3.42,1.28.75,2.6.18,3.42-.9.15-.2-.04.07-.06.09.24-.3.48-.61.71-.92.27-.37.53-.74.77-1.13.61-.98,1.1-2.03,1.52-3.11.71-1.82,1.07-3.76,1.2-5.7.27-4.12-.77-8.21-2.43-11.95-2.98-6.72-8.47-12.43-15.2-15.45-6.17-2.76-13.03-3.8-19.75-3.86-7.09-.06-14.33.96-21.05,3.26-6.11,2.09-12.27,5.29-16.46,10.35-5.21,6.3-7.61,14.78-4.94,22.71,2.92,8.65,11.03,14.31,19.59,16.55,4.32,1.13,8.82,1.56,13.27,1.69,1.96.06,3.92.04,5.88.05.86,0,1.42.01,2.03.17.04,0,.46.14.15.01.15.06.31.16.45.25-.32-.23-.03.05.05.29,1.39,4.11,3.4,7.53,6.99,10.1,1.72,1.23,3.75,2.12,5.8,2.62,2.31.57,5.38.22,5.45-2.82.03-1.07-.5-1.95-.93-2.89-.4-.88-.69-1.84-.82-2.8-.25-1.85.1-3.96,1.69-5.12,1.67-1.22,3.8-1.88,5.6-2.88,2.15-1.18,4.17-2.62,5.99-4.27,1.71-1.55,3.2-3.33,4.48-5.25,1.79-2.68-2.54-5.19-4.32-2.52Z"/>
  <path class="st12" d="M44.13,112.93c-4.75,1.44-9.24,4-12.36,7.92-2.83,3.54-4.47,7.79-4.69,12.32-.45,9.17,5.35,17.65,13.58,21.4,9.66,4.41,21.25,3.79,30.22-2,4.17-2.69,7.64-6.45,9.33-11.16s.95-10.08-1.35-14.57c-6.18-12.11-22.03-17.46-34.74-13.91-3.09.87-1.78,5.69,1.33,4.82,9.21-2.58,20.72.38,26.82,8.01,1.53,1.92,2.75,4.17,3.4,6.5.27.98.42,1.79.47,2.57.03.5.04,1,.02,1.5-.01.27-.03.54-.05.8-.05.51.04-.16-.05.39-.67,3.89-2.77,6.85-5.9,9.42s-7.3,4.31-11.47,5.11-8.69.44-12.99-.88c-3.89-1.19-7.2-3.27-9.81-6.41-.38-.46-.19-.21-.54-.71-.29-.41-.57-.83-.83-1.26-.21-.36-.42-.72-.61-1.09-.11-.22-.22-.44-.33-.66-.03-.06-.31-.69-.15-.3-.35-.82-.63-1.68-.85-2.54-.12-.47-.23-.94-.31-1.41-.03-.16-.06-.32-.08-.47-.04-.3-.05-.32,0-.05-.02-.16-.04-.32-.05-.48-.07-.96-.1-1.91-.04-2.87.01-.24.04-.48.06-.72.02-.16.03-.32.05-.48-.04.27-.03.25.01-.05.08-.47.18-.94.29-1.41.51-2.08,1.06-3.32,2.3-5.18,2.31-3.46,6.32-6.04,10.65-7.35,3.07-.93,1.76-5.76-1.33-4.82Z"/>
  <path class="st16" d="M26.35,192.81c3.58-9.39,10.17-19,19.89-22.76,4.59-1.78,10.08-2.4,14.92-1.36s9.23,3.74,12.75,7.26c4.38,4.37,7.5,9.89,9.29,15.79.93,3.07,5.76,1.76,4.82-1.33-3.5-11.53-11.92-22.64-23.89-26.12-5.48-1.59-11.87-1.37-17.31.28s-10.62,5.08-14.64,9.32c-4.77,5.04-8.19,11.13-10.65,17.58-.48,1.26.53,2.74,1.75,3.08,1.41.39,2.59-.48,3.08-1.75h0Z"/>
  <path class="st10" d="M92.61,124.66c17.85-.55,35.72-.87,53.58-.97,5.07-.03,10.15-.04,15.23-.03,3.22,0,3.22-5,0-5-17.88-.03-35.75.17-53.62.59-5.06.12-10.12.26-15.18.41-3.21.1-3.22,5.1,0,5h0Z"/>
  <path class="st7" d="M97.36,142.85c10.13-.33,20.27-.66,30.4-.99,3.21-.1,3.22-5.1,0-5-10.13.33-20.27.66-30.4.99-3.21.1-3.22,5.1,0,5h0Z"/>
  <path class="st5" d="M99.23,160.56l16.63-.51c1.31-.04,2.56-1.12,2.5-2.5s-1.1-2.54-2.5-2.5l-16.63.51c-1.31.04-2.56,1.12-2.5,2.5s1.1,2.54,2.5,2.5h0Z"/>
  <path class="st1" d="M445.85,100.28"/>
  <path class="st3" d="M507.63,100.28"/>
  <path class="st9" d="M516.51,38.76c-2.02.03-4.03.12-6.05.29-.67.06-1.28.24-1.77.73-.43.43-.76,1.15-.73,1.77s.24,1.32.73,1.77c.47.43,1.11.79,1.77.73,2.01-.17,4.03-.26,6.05-.29.65,0,1.31-.27,1.77-.73.43-.43.76-1.15.73-1.77-.06-1.34-1.1-2.52-2.5-2.5h0Z"/>
  <path class="st17" d="M513.98,41.65c-.03,8.13-.06,16.26-.09,24.39-.01,3.98-.03,7.96-.04,11.95-.01,3.46.15,7.03-.41,10.46-.14.89-.32,2.52-.95,3.13-.32.3-.88.37-1.28.4-.07,0-.71-.09-.59-.04.26.1.1.33.02-.08-.14-.75-.31-1.63-.34-2.69s-.06-2.23-.08-3.35c-.09-5.16-.09-10.31-.06-15.47.06-11.46.25-22.92.24-34.38,0-4.77-.03-9.54-.2-14.31-.06-1.85-.15-3.71-.29-5.56-.06-.8-.09-1.63-.23-2.42-.34-1.91-2.37-2.91-4.12-3.2-1.65-.27-3.36-.18-5.03-.2s-3.45-.04-5.17-.05c-3.59-.02-7.17-.03-10.76-.02-7.28,0-14.57.05-21.85.06-3.6,0-7.21-.05-10.81-.02-1.42.01-2.95.02-4.3.51-1.93.72-2.82,2.41-3.06,4.37-.4,3.32-.12,6.8-.13,10.13,0,3.6,0,7.2,0,10.8,0,14.59.01,29.18.02,43.77,0,3.46,0,6.91,0,10.37,0,2.83-.3,5.87,2.34,7.68,2.02,1.39,4.72,1.29,7.07,1.26,3.42-.05,6.84.08,10.26.04,8.69-.12,17.38.24,26.08.04,4.48-.1,8.96-.28,13.42-.72,3.3-.33,6.84-.64,9.95-1.91,1.26-.51,2.53-1.2,3.21-2.44,1.56-2.82-2.76-5.34-4.32-2.52-.22.39.25-.29.18-.2-.06.08-.15.17-.22.23-.27.21.53-.27.18-.14-.13.05-.26.17-.39.24s-.27.12-.39.2c-.04.02.54-.19.02-.01-.35.12-.69.24-1.04.34-.84.25-1.69.43-2.55.59-.49.09-.99.18-1.48.25-.22.03-.45.07-.67.1-.09.01-.49.06-.03,0-.16.02-.32.04-.47.06-5.11.61-10.26.82-15.4.94-4.78.11-9.56.1-14.34.04-6.4-.08-12.8.01-19.2-.14-1.5-.04-3,.05-4.5.02-.34,0-.68-.03-1.01-.04-.14,0-.28-.02-.41-.03.11.01.39.08-.12-.02-.24-.04-.47-.11-.71-.17-.08-.02-.47-.15-.04,0-.13-.05-.24-.16-.37-.21.14.05.26.34.02,0,.03.04.25.3.07.09-.07-.07-.12-.2-.16-.29.08.18.06.29.02-.07.04.35-.02-.34-.02-.45,0-.5.03-1,.03-1.5,0-1.99,0-3.97,0-5.96,0-8.36,0-16.73-.01-25.09s0-17.14,0-25.71c0-4.17,0-8.35.01-12.52,0-1.99-.06-4,.03-5.98.01-.26.16-.68.11-.91-.1-.47-.24.41-.34.19-.04-.08,1.88-.22,2-.22,8.36-.18,16.74,0,25.1-.03s16.68-.06,25.01.06c1.05.01,3.37-.38,4.08.49l-.73-1.77c.69,6.73.65,13.56.66,20.32.02,9.05-.09,18.1-.17,27.14-.08,8.54-.16,17.09.02,25.63.04,1.92-.11,4.04.48,5.89.8,2.49,2.81,4.08,5.48,4,2.94-.1,5.19-1.59,6.27-4.32,1-2.53,1.13-5.33,1.28-8.02.38-7,.12-14.08.14-21.09s.05-14.6.08-21.9c.01-3.22-4.99-3.22-5,0h0Z"/>
  <rect class="st2" x="454.17" y="20.74" width="28.51" height="16.93"/>
  <path class="st14" d="M499.83,80.04c-14.46-.14-28.93-.33-43.39-.53-2.41-.03-2.42,3.72,0,3.75,14.46.2,28.93.39,43.39.53,2.41.02,2.42-3.73,0-3.75h0Z"/>
  <path class="st8" d="M499.14,69.48c-14.46-.14-28.93-.33-43.39-.53-2.41-.03-2.42,3.72,0,3.75,14.46.2,28.93.39,43.39.53,2.41.02,2.42-3.73,0-3.75h0Z"/>
  <path class="st15" d="M499.14,58.92c-14.46-.14-28.93-.33-43.39-.53-2.41-.03-2.42,3.72,0,3.75,14.46.2,28.93.39,43.39.53,2.41.02,2.42-3.73,0-3.75h0Z"/>
  <path class="st6" d="M499.14,48.36c-14.46-.14-28.93-.33-43.39-.53-2.41-.03-2.42,3.72,0,3.75,14.46.2,28.93.39,43.39.53,2.41.02,2.42-3.73,0-3.75h0Z"/>
</svg>