<?xml version="1.0" encoding="UTF-8"?>
<svg id="Layer_1" xmlns="http://www.w3.org/2000/svg" version="1.1" viewBox="0 0 612 792">
  <!-- Generator: Adobe Illustrator 29.8.3, SVG Export Plug-In . SVG Version: 2.1.1 Build 3)  -->
  <defs>
    <style>
      .st0 {
        fill: #231f20;
      }

      .st1 {
        fill: none;
        stroke: #1b2b16;
        stroke-miterlimit: 10;
        stroke-width: 4px;
      }

      .st2 {
        fill: #1b2b16;
      }
    </style>
  </defs>
  <path class="st0" d="M903,695.5c3.22,0,3.22-5,0-5s-3.22,5,0,5h0Z"/>
  <path class="st2" d="M242.09,99.45c-7.76-5.49-17.22-9.29-26.85-7.94-7.25,1.02-13.84,5.38-17.2,11.96-3.8,7.43-3.34,16.25-.32,23.87,1.97,4.98,4.94,9.14,7.96,13.51,2.78,4.03,5.69,7.98,8.49,11.99,5.4,7.76,10.6,15.93,13.11,25.13,2.22,8.16,2.07,17.03-.75,25.04-.11.31-.23.63-.35.94-.06.16-.35.87-.25.62s-.2.46-.27.61c-.16.36-.33.72-.51,1.07-.56,1.12-1.18,2.22-1.85,3.28-.36.56-.73,1.11-1.11,1.65-.17.24-.35.48-.53.72-.08.11-.36.47-.03.05-.12.16-.25.32-.37.47-.84,1.05-1.74,2.06-2.68,3.02s-1.86,1.82-2.85,2.67c-.53.45-1.07.89-1.61,1.33-.11.09-.22.17-.33.26.4-.31.02-.02-.08.06-.31.23-.62.46-.94.69-2.29,1.65-4.71,3.12-7.21,4.44-1.33.7-2.68,1.35-4.05,1.96-.35.15-.69.31-1.04.46.43-.18-.32.13-.46.19-.75.31-1.5.6-2.26.88-2.91,1.09-5.88,2.01-8.89,2.78s-6.15,1.42-9.27,1.91c-.4.06-.81.13-1.21.18-.18.03-1.22.17-.8.11-.82.11-1.63.21-2.45.29-1.6.17-3.21.31-4.82.41-6.47.41-12.99.26-19.44-.48-.41-.05-.81-.1-1.22-.15-.16-.02-.32-.04-.49-.06.45.06-.07-.01-.18-.03-.84-.12-1.69-.25-2.53-.39-1.55-.26-3.09-.55-4.63-.88-3.04-.66-6.05-1.47-9.01-2.45-1.42-.47-2.83-.98-4.22-1.54-.32-.13-.63-.26-.95-.39-.67-.28.27.12-.13-.06-.17-.07-.35-.15-.52-.22-.69-.3-1.37-.61-2.04-.93-2.6-1.24-5.11-2.65-7.5-4.25-.56-.37-1.11-.76-1.66-1.16-.26-.19-.51-.38-.76-.57-.1-.08-.48-.37-.08-.06-.17-.13-.33-.26-.49-.39-1.08-.86-2.12-1.77-3.12-2.73-.93-.89-1.83-1.83-2.67-2.81-.44-.51-.87-1.03-1.28-1.56.34.44-.18-.25-.28-.38-.22-.3-.43-.6-.64-.9-.76-1.1-1.46-2.25-2.1-3.43-.29-.53-.56-1.07-.82-1.62-.14-.3-.28-.61-.42-.92-.19-.43-.02-.04.01.04-.08-.19-.16-.38-.23-.56-1.34-3.36-2.08-6.92-2.56-10.5-1.32-9.8-.21-19.61,3.19-28.89,1.65-4.52,3.81-8.85,6.18-13.03,2.57-4.53,5.3-9.09,8.42-13.27,5.48-7.34,9.77-16.57,9.13-25.94-.49-7.2-4-13.97-10.35-17.66-6.96-4.05-15.58-3.64-22.94-.94-4.78,1.75-9.18,4.32-13.22,7.4-1.07.82-1.64,2.16-.9,3.42.62,1.06,2.34,1.72,3.42.9,7.03-5.34,15.56-9.63,24.47-8.66.03,0,.44.06.8.12.43.08.86.17,1.29.27.83.2,1.65.46,2.45.77.76.28-.22-.1.22.08.19.08.38.17.57.26.33.16.66.33.99.51.75.41,1.47.88,2.15,1.4-.31-.24.33.28.43.37.3.27.6.54.88.83s.56.58.82.88c.11.12.21.25.31.37.36.43-.1-.15.21.26.46.63.88,1.28,1.25,1.96.18.33.35.66.51.99.11.23.21.45.31.68-.16-.38.11.3.12.34,1.26,3.4,1.5,6.54,1.07,10.23-.47,4.01-2.08,8.32-4.08,12.02-2.53,4.68-5.9,8.88-8.75,13.37-2.66,4.2-5.18,8.51-7.33,13-4.31,8.99-7.04,18.61-7.18,28.62-.12,8.1.98,16.61,4.52,23.97,4.88,10.15,14.26,17.45,24.33,22.02,11.68,5.29,24.57,7.63,37.34,7.89s25.78-1.53,37.77-5.96c10.84-4,21.19-10.26,27.92-19.86,3.37-4.81,5.41-10.31,6.39-16.07,1.72-10.11.03-20.04-4.11-29.35-3.91-8.8-9.66-16.62-15.23-24.42s-11.9-15.44-13.22-25.03c-.95-6.93,1-13.74,6.29-18.21.86-.73,2.47-1.75,3.84-2.4.52-.25,1.3-.55,2.14-.82s1.77-.49,2.67-.66c3.45-.63,7.57-.24,11.2.79,4.68,1.32,8.97,3.67,12.92,6.47,1.1.78,2.78.2,3.42-.9.73-1.25.21-2.64-.9-3.42h0Z"/>
  <line class="st1" x1="141.07" y1="91.93" x2="140.74" y2="216.68"/>
  <path class="st1" d="M140.74,216.68"/>
  <line class="st1" x1="155.14" y1="81.99" x2="154.77" y2="221.85"/>
  <line class="st1" x1="169.18" y1="81.95" x2="168.81" y2="222.58"/>
  <line class="st1" x1="182.73" y1="89.79" x2="184.87" y2="219.89"/>
  <line class="st1" x1="127.25" y1="113.6" x2="194.85" y2="114.03"/>
  <path class="st2" d="M113.65,172.54c-4.11,10.73-4.25,22.95,2.71,32.54,6.6,9.1,17.17,14.41,27.81,17.24,11.77,3.13,24.33,3.57,36.32,1.5,10.54-1.82,21.61-5.91,29.06-13.91,3.41-3.67,5.97-8.15,7.05-13.06,1.25-5.66.7-11.55-.99-17.06-.46-1.5-1-2.96-1.6-4.41-.52-1.25-1.66-2.14-3.08-1.75-1.18.32-2.27,1.82-1.75,3.08,1.18,2.83,2.13,5.76,2.68,8.78.05.29.1.59.15.88.03.17.05.35.08.52-.1-.72-.02-.12,0,.03.07.68.14,1.35.17,2.03.06,1.24.05,2.49-.05,3.73-.03.31-.06.62-.09.94-.07.72.09-.46-.03.26-.1.6-.21,1.2-.34,1.8-.25,1.12-.59,2.21-.99,3.28-.07.19-.48,1.12-.13.36-.12.27-.24.54-.36.8-.25.53-.52,1.05-.81,1.56-.55.98-1.18,1.91-1.84,2.82-.4.56.29-.34-.15.19-.19.23-.37.46-.56.69-.39.45-.79.9-1.2,1.33-.8.84-1.66,1.63-2.55,2.38-.24.2-.48.39-.72.58-.55.45.34-.24-.23.18-.51.37-1.01.74-1.53,1.09-1.04.7-2.11,1.36-3.21,1.97s-2.29,1.21-3.46,1.74c-.25.12-.51.23-.77.34-.13.06-.67.28-.02.01-.16.07-.31.13-.47.19-.63.26-1.27.5-1.91.74-2.54.93-5.14,1.68-7.77,2.29-1.36.31-2.72.58-4.1.81-.66.11-1.33.22-2,.31-.18.03-.37.05-.55.08.69-.1.06,0-.07,0-.4.05-.8.1-1.2.14-2.89.32-5.79.49-8.69.51s-5.79-.1-8.66-.37c-.69-.06-1.37-.14-2.06-.22-.37-.04-.74-.09-1.12-.14.7.09-.42-.06-.63-.09-1.44-.21-2.88-.47-4.3-.76-2.77-.57-5.5-1.29-8.19-2.18-1.29-.43-2.57-.9-3.83-1.41-.16-.07-.32-.13-.49-.2-.56-.23.51.22-.05-.02-.27-.12-.53-.23-.8-.35-.63-.28-1.25-.57-1.87-.88-2.35-1.16-4.61-2.49-6.74-4.01-.22-.16-.44-.32-.65-.48-.13-.1-.26-.2-.39-.29.56.43.11.08,0,0-.5-.4-.99-.81-1.47-1.23-.91-.8-1.77-1.64-2.59-2.52-.39-.42-.76-.85-1.12-1.28-.2-.24-.39-.48-.58-.72.44.55-.11-.16-.26-.35-.69-.95-1.32-1.94-1.89-2.97-.27-.49-.53-.99-.77-1.5-.13-.28-.26-.56-.38-.84-.23-.51.22.55.01.03-.06-.14-.12-.29-.17-.43-.45-1.16-.82-2.35-1.11-3.56-.13-.57-.25-1.14-.35-1.71-.05-.26-.08-.53-.12-.79.13.81-.04-.41-.06-.63-.12-1.28-.16-2.58-.12-3.86.02-.64.06-1.28.12-1.92.03-.36.07-.71.11-1.07.02-.13.07-.49-.02.12.03-.24.07-.48.11-.73.23-1.45.55-2.89.94-4.31.42-1.53.93-3.04,1.5-4.52.48-1.26-.53-2.74-1.75-3.08-1.41-.39-2.59.48-3.08,1.75h0Z"/>
  <path class="st2" d="M94.26,115.12c1.43-2.08,4.15-3.18,6.61-2.56,2.62.67,4.46,2.82,4.83,5.48.93,6.63-5.17,12.15-8.77,16.94-7.9,10.52-13.21,23.08-15.43,36.04-1.28,7.44-1.61,15.01-.86,22.52.13,1.34,1.05,2.5,2.5,2.5,1.25,0,2.63-1.15,2.5-2.5-1.4-14.06.93-28.45,6.84-41.3,2.97-6.47,6.82-12.36,11.27-17.9s9.2-12.92,5.88-20.41c-1.65-3.72-5.4-6.12-9.38-6.5s-8.03,1.84-10.31,5.17c-.76,1.11-.21,2.77.9,3.42,1.24.72,2.65.22,3.42-.9h0Z"/>
  <path class="st2" d="M229.04,108.09c-4.67-5.85-13.67-5.25-17.96.65-2.23,3.08-2.49,7.16-1.53,10.74s3.31,6.91,5.84,9.77c2.37,2.68,4.88,5.23,7.11,8.04s4.11,5.65,5.88,8.65c3.55,6.03,6.29,12.48,8.17,19.22,2.14,7.66,3.11,15.57,2.9,23.53-.09,3.22,4.91,3.22,5,0,.37-13.49-2.63-26.95-8.46-39.1-2.89-6.01-6.5-11.63-10.72-16.79-2.14-2.62-4.55-5-6.76-7.57-2.09-2.42-4.04-5.25-4.43-8.51-.38-3.06.91-6.11,3.87-7.36,2.79-1.18,5.76-.01,7.57,2.25.84,1.06,2.66.88,3.54,0,1.04-1.04.84-2.48,0-3.54h0Z"/>
  <line class="st1" x1="140.75" y1="75.18" x2="140.73" y2="85.51"/>
  <line class="st1" x1="155.18" y1="67.52" x2="155.15" y2="77.85"/>
  <line class="st1" x1="169.22" y1="67.55" x2="169.19" y2="77.89"/>
  <line class="st1" x1="182.75" y1="75.18" x2="182.72" y2="85.51"/>
</svg>